<?xml version="1.0" encoding="utf-8"?>
<svg xml:space="preserve" viewBox="0 0 100 100" y="0px" x="0px" xmlns:xlink="http://www.w3.org/1999/xlink" xmlns="http://www.w3.org/2000/svg" id="圖層_1" version="1.1" style="height: 100%; width: 100%; background: none; shape-rendering: auto;" width="200px" height="200px"><g class="ldl-scale" style="transform-origin: 50% 50%; transform: rotate(0deg) scale(0.8, 0.8);"><g class="ldl-ani"><g class="ldl-layer"><g class="ldl-ani" style="transform: scale(0.91); transform-origin: 50px 50px; animation: 1.11111s linear -0.833333s infinite normal forwards running breath-4cf9c7a2-1dd5-46f1-828b-6d5959dfe443;"><circle r="37.5" cy="50" cx="50" stroke-miterlimit="10" stroke-width="3.5" stroke="#333435" fill="#F7B26A" style="fill: rgb(247, 178, 106); stroke: rgb(51, 52, 53);"></circle></g></g><g class="ldl-layer"><g class="ldl-ani" style="transform: scale(0.91); transform-origin: 50px 50px; animation: 1.11111s linear -1.11111s infinite normal forwards running breath-4cf9c7a2-1dd5-46f1-828b-6d5959dfe443;"><path d="M49.1,25.5l-6.7,10.2c-0.2,0.3-0.5,0.5-0.9,0.5 l-12.2,0.7c-0.8,0-1.3,0.9-0.9,1.6l5.5,10.9c0.2,0.3,0.2,0.7,0,1l-5.5,10.9c-0.4,0.7,0.1,1.6,0.9,1.6l12.2,0.7 c0.4,0,0.7,0.2,0.9,0.5l6.7,10.2c0.4,0.7,1.4,0.7,1.9,0l6.7-10.2c0.2-0.3,0.5-0.5,0.9-0.5l12.2-0.7c0.8,0,1.3-0.9,0.9-1.6l-5.5-10.9 c-0.2-0.3-0.2-0.7,0-1l5.5-10.9c0.4-0.7-0.1-1.6-0.9-1.6l-12.2-0.7c-0.4,0-0.7-0.2-0.9-0.5l-6.7-10.2C50.5,24.8,49.5,24.8,49.1,25.5 z" stroke-miterlimit="10" stroke-width="3.5" stroke="#333435" fill="#F5E169" style="fill: rgb(245, 225, 105); stroke: rgb(51, 52, 53);"></path></g></g><metadata xmlns:d="https://loading.io/stock/">
<d:name>star of david</d:name>
<d:tags>star,coin,medal,credit,hexagram</d:tags>
<d:license>by</d:license>
<d:slug>tlhc17</d:slug>
</metadata></g></g><style id="breath-4cf9c7a2-1dd5-46f1-828b-6d5959dfe443" data-anikit="">@keyframes breath-4cf9c7a2-1dd5-46f1-828b-6d5959dfe443
{
  0% {
    animation-timing-function: cubic-bezier(0.9647,0.2413,-0.0705,0.7911);
    transform: scale(0.9099999999999999);
  }
  51% {
    animation-timing-function: cubic-bezier(0.9226,0.2631,-0.0308,0.7628);
    transform: scale(1.02994);
  }
  100% {
    transform: scale(0.9099999999999999);
  }
}</style><!-- [ldio] generated by https://loading.io/ --></svg>